<svg xmlns="http://www.w3.org/2000/svg" viewBox="0 0 330 200"><g><g><g><g><g><line x1="34" x2="29" y1="143.824" y2="143.824" fill="#000" stroke="#CCC" stroke-width="1" visibility="inherit"/><line x1="34" x2="29" y1="75.237" y2="75.237" fill="#000" stroke="#CCC" stroke-width="1" visibility="inherit"/><line x1="34" x2="29" y1="26.575" y2="26.575" fill="#000" stroke="#CCC" stroke-width="1" visibility="inherit"/></g><g><text x="0" y="143.824" fill="#32313F" stroke="none" stroke-width="1" dx="0em" dy=".3em" font-family="&quot;Helvetica Neue&quot;, sans-serif" font-size="12" font-weight="200" text-anchor="end" transform="translate(24, 0)" visibility="inherit">20</text><text x="0" y="75.237" fill="#32313F" stroke="none" stroke-width="1" dx="0em" dy=".3em" font-family="&quot;Helvetica Neue&quot;, sans-serif" font-size="12" font-weight="200" text-anchor="end" transform="translate(24, 0)" visibility="inherit">30</text><text x="0" y="26.575" fill="#32313F" stroke="none" stroke-width="1" dx="0em" dy=".3em" font-family="&quot;Helvetica Neue&quot;, sans-serif" font-size="12" font-weight="200" text-anchor="end" transform="translate(24, 0)" visibility="inherit">40</text></g><line x1="34" x2="34" y1="0" y2="178" fill="#000" stroke="#CCC" stroke-width="1"/></g></g><g clip-path="url(#clip_0)" transform="translate(34, 0)"><clipPath id="clip_0"><rect width="296" height="178"/></clipPath><g><g><g><line x1="0" x2="0" y1="0" y2="178" fill="#000" stroke="#3C3C3C" stroke-width="1" opacity=".25"/><line x1="29.6" x2="29.6" y1="0" y2="178" fill="#000" stroke="#3C3C3C" stroke-width="1" opacity=".25"/><line x1="59.2" x2="59.2" y1="0" y2="178" fill="#000" stroke="#3C3C3C" stroke-width="1" opacity=".25"/><line x1="88.8" x2="88.8" y1="0" y2="178" fill="#000" stroke="#3C3C3C" stroke-width="1" opacity=".25"/><line x1="118.4" x2="118.4" y1="0" y2="178" fill="#000" stroke="#3C3C3C" stroke-width="1" opacity=".25"/><line x1="148" x2="148" y1="0" y2="178" fill="#000" stroke="#3C3C3C" stroke-width="1" opacity=".25"/><line x1="177.6" x2="177.6" y1="0" y2="178" fill="#000" stroke="#3C3C3C" stroke-width="1" opacity=".25"/><line x1="207.2" x2="207.2" y1="0" y2="178" fill="#000" stroke="#3C3C3C" stroke-width="1" opacity=".25"/><line x1="236.8" x2="236.8" y1="0" y2="178" fill="#000" stroke="#3C3C3C" stroke-width="1" opacity=".25"/><line x1="266.4" x2="266.4" y1="0" y2="178" fill="#000" stroke="#3C3C3C" stroke-width="1" opacity=".25"/><line x1="296" x2="296" y1="0" y2="178" fill="#000" stroke="#3C3C3C" stroke-width="1" opacity=".25"/></g><g><line x1="0" x2="296" y1="143.824" y2="143.824" fill="#000" stroke="#3C3C3C" stroke-width="1" opacity=".25"/><line x1="0" x2="296" y1="75.237" y2="75.237" fill="#000" stroke="#3C3C3C" stroke-width="1" opacity=".25"/><line x1="0" x2="296" y1="26.575" y2="26.575" fill="#000" stroke="#3C3C3C" stroke-width="1" opacity=".25"/></g></g></g><g><g><line x1="0" x2="0" y1="0" y2="178" fill="#000" stroke="#999" stroke-width="1.5"/></g></g><g><g><g><g><g><path fill="none" stroke="#E37" stroke-width="2" d="M14.797039999999999,153.03261890091954L29.59704,119.46461228779327L44.397040000000004,96.23984455503106L59.19704,87.25298244552275L73.99704,80.25256131974388L88.79704,75.44078765691727L103.59704,72.9026062066616L118.39704,71.75126946088503L133.19704,72.88572051405981L147.99704,66.38687722249139L162.79703999999998,63.767171510716125L177.59704,60.381391558523404L192.39703999999998,32.286544476062744L207.19704,30.36580476131394L221.99704000000003,28.342450469851315L236.79703999999998,28.61467259719518L251.59704,25.428571428571416L266.39704,25.2702273598143"/></g><g><path fill="none" stroke="#3BE" stroke-width="2" d="M14.797039999999999,154.7971855640102L29.59704,115.76632265032913L44.397040000000004,99.14294067080715L59.19704,93.20885923139218L73.99704,83.5801130280801L88.79704,73.9943913542145L103.59704,72.45857086067412L118.39704,70.15554624012535L133.19704,68.5477526563073L147.99704,66.09677704167858L162.79703999999998,67.67475158442045L177.59704,63.09343244104875L192.39703999999998,30.94916925308121L207.19704,29.01744593377711L221.99704000000003,27.68853490463576L236.79703999999998,27.235409352554342L251.59704,24.576684677465266L266.39704,24.386487358635776"/></g><g><path fill="none" stroke="#07B" stroke-width="2" d="M14.797039999999999,220.82760810577096L29.59704,152.57142857142856L44.397040000000004,133.55868812304874L59.19704,127.21054012707165L73.99704,108.33758214782793L88.79704,100.470054872564L103.59704,99.16872009783685L118.39704,90.81687212499766L133.19704,86.49205457086482L147.99704,85.68335721476775L162.79703999999998,87.31451210100533L177.59704,78.70330537117263L192.39703999999998,47.60861093087382L207.19704,44.068260098128604L221.99704000000003,42.87446212995553L236.79703999999998,41.64303253275071L251.59704,39.3413926718041L266.39704,38.695894969855914"/></g></g></g></g></g></g><g clip-path="url(#clip_1)" transform="translate(34, 178)"><clipPath id="clip_1"><rect width="296" height="22"/></clipPath><g><g><line x1="0" x2="0" y1="0" y2="5" fill="#000" stroke="#CCC" stroke-width="1" visibility="inherit"/><line x1="29.6" x2="29.6" y1="0" y2="5" fill="#000" stroke="#CCC" stroke-width="1" visibility="inherit"/><line x1="59.2" x2="59.2" y1="0" y2="5" fill="#000" stroke="#CCC" stroke-width="1" visibility="inherit"/><line x1="88.8" x2="88.8" y1="0" y2="5" fill="#000" stroke="#CCC" stroke-width="1" visibility="inherit"/><line x1="118.4" x2="118.4" y1="0" y2="5" fill="#000" stroke="#CCC" stroke-width="1" visibility="inherit"/><line x1="148" x2="148" y1="0" y2="5" fill="#000" stroke="#CCC" stroke-width="1" visibility="inherit"/><line x1="177.6" x2="177.6" y1="0" y2="5" fill="#000" stroke="#CCC" stroke-width="1" visibility="inherit"/><line x1="207.2" x2="207.2" y1="0" y2="5" fill="#000" stroke="#CCC" stroke-width="1" visibility="inherit"/><line x1="236.8" x2="236.8" y1="0" y2="5" fill="#000" stroke="#CCC" stroke-width="1" visibility="inherit"/><line x1="266.4" x2="266.4" y1="0" y2="5" fill="#000" stroke="#CCC" stroke-width="1" visibility="inherit"/><line x1="296" x2="296" y1="0" y2="5" fill="#000" stroke="#CCC" stroke-width="1" visibility="inherit"/></g><g><text x="0" y="0" fill="#32313F" stroke="none" stroke-width="1" dx="0em" dy=".95em" font-family="&quot;Helvetica Neue&quot;, sans-serif" font-size="12" font-weight="200" text-anchor="middle" transform="translate(0, 8)" visibility="hidden">0</text><text x="29.6" y="0" fill="#32313F" stroke="none" stroke-width="1" dx="0em" dy=".95em" font-family="&quot;Helvetica Neue&quot;, sans-serif" font-size="12" font-weight="200" text-anchor="middle" transform="translate(0, 8)" visibility="inherit">10k</text><text x="59.2" y="0" fill="#32313F" stroke="none" stroke-width="1" dx="0em" dy=".95em" font-family="&quot;Helvetica Neue&quot;, sans-serif" font-size="12" font-weight="200" text-anchor="middle" transform="translate(0, 8)" visibility="inherit">20k</text><text x="88.8" y="0" fill="#32313F" stroke="none" stroke-width="1" dx="0em" dy=".95em" font-family="&quot;Helvetica Neue&quot;, sans-serif" font-size="12" font-weight="200" text-anchor="middle" transform="translate(0, 8)" visibility="inherit">30k</text><text x="118.4" y="0" fill="#32313F" stroke="none" stroke-width="1" dx="0em" dy=".95em" font-family="&quot;Helvetica Neue&quot;, sans-serif" font-size="12" font-weight="200" text-anchor="middle" transform="translate(0, 8)" visibility="inherit">40k</text><text x="148" y="0" fill="#32313F" stroke="none" stroke-width="1" dx="0em" dy=".95em" font-family="&quot;Helvetica Neue&quot;, sans-serif" font-size="12" font-weight="200" text-anchor="middle" transform="translate(0, 8)" visibility="inherit">50k</text><text x="177.6" y="0" fill="#32313F" stroke="none" stroke-width="1" dx="0em" dy=".95em" font-family="&quot;Helvetica Neue&quot;, sans-serif" font-size="12" font-weight="200" text-anchor="middle" transform="translate(0, 8)" visibility="inherit">60k</text><text x="207.2" y="0" fill="#32313F" stroke="none" stroke-width="1" dx="0em" dy=".95em" font-family="&quot;Helvetica Neue&quot;, sans-serif" font-size="12" font-weight="200" text-anchor="middle" transform="translate(0, 8)" visibility="inherit">70k</text><text x="236.8" y="0" fill="#32313F" stroke="none" stroke-width="1" dx="0em" dy=".95em" font-family="&quot;Helvetica Neue&quot;, sans-serif" font-size="12" font-weight="200" text-anchor="middle" transform="translate(0, 8)" visibility="inherit">80k</text><text x="266.4" y="0" fill="#32313F" stroke="none" stroke-width="1" dx="0em" dy=".95em" font-family="&quot;Helvetica Neue&quot;, sans-serif" font-size="12" font-weight="200" text-anchor="middle" transform="translate(0, 8)" visibility="inherit">90k</text><text x="296" y="0" fill="#32313F" stroke="none" stroke-width="1" dx="0em" dy=".95em" font-family="&quot;Helvetica Neue&quot;, sans-serif" font-size="12" font-weight="200" text-anchor="middle" transform="translate(0, 8)" visibility="hidden">100k</text></g><line x1="0" x2="296" y1="0" y2="0" fill="#000" stroke="#CCC" stroke-width="1"/></g></g></g></g></svg>