<svg xmlns="http://www.w3.org/2000/svg" viewBox="0 0 330 200"><g><g><g><g><g><line x1="34" x2="29" y1="178" y2="178" fill="#000" stroke="#CCC" stroke-width="1" visibility="inherit"/><line x1="34" x2="29" y1="164.308" y2="164.308" fill="#000" stroke="#CCC" stroke-width="1" visibility="inherit"/><line x1="34" x2="29" y1="150.615" y2="150.615" fill="#000" stroke="#CCC" stroke-width="1" visibility="inherit"/><line x1="34" x2="29" y1="136.923" y2="136.923" fill="#000" stroke="#CCC" stroke-width="1" visibility="inherit"/><line x1="34" x2="29" y1="123.231" y2="123.231" fill="#000" stroke="#CCC" stroke-width="1" visibility="inherit"/><line x1="34" x2="29" y1="109.538" y2="109.538" fill="#000" stroke="#CCC" stroke-width="1" visibility="inherit"/><line x1="34" x2="29" y1="95.846" y2="95.846" fill="#000" stroke="#CCC" stroke-width="1" visibility="inherit"/><line x1="34" x2="29" y1="82.154" y2="82.154" fill="#000" stroke="#CCC" stroke-width="1" visibility="inherit"/><line x1="34" x2="29" y1="68.462" y2="68.462" fill="#000" stroke="#CCC" stroke-width="1" visibility="inherit"/><line x1="34" x2="29" y1="54.769" y2="54.769" fill="#000" stroke="#CCC" stroke-width="1" visibility="inherit"/><line x1="34" x2="29" y1="41.077" y2="41.077" fill="#000" stroke="#CCC" stroke-width="1" visibility="inherit"/><line x1="34" x2="29" y1="27.385" y2="27.385" fill="#000" stroke="#CCC" stroke-width="1" visibility="inherit"/><line x1="34" x2="29" y1="13.692" y2="13.692" fill="#000" stroke="#CCC" stroke-width="1" visibility="inherit"/><line x1="34" x2="29" y1="0" y2="0" fill="#000" stroke="#CCC" stroke-width="1" visibility="inherit"/></g><g><text x="0" y="178" fill="#32313F" stroke="none" stroke-width="1" dx="0em" dy=".3em" font-family="&quot;Helvetica Neue&quot;, sans-serif" font-size="12" font-weight="200" text-anchor="end" transform="translate(24, 0)" visibility="hidden">14</text><text x="0" y="164.308" fill="#32313F" stroke="none" stroke-width="1" dx="0em" dy=".3em" font-family="&quot;Helvetica Neue&quot;, sans-serif" font-size="12" font-weight="200" text-anchor="end" transform="translate(24, 0)" visibility="inherit">16</text><text x="0" y="150.615" fill="#32313F" stroke="none" stroke-width="1" dx="0em" dy=".3em" font-family="&quot;Helvetica Neue&quot;, sans-serif" font-size="12" font-weight="200" text-anchor="end" transform="translate(24, 0)" visibility="hidden">18</text><text x="0" y="136.923" fill="#32313F" stroke="none" stroke-width="1" dx="0em" dy=".3em" font-family="&quot;Helvetica Neue&quot;, sans-serif" font-size="12" font-weight="200" text-anchor="end" transform="translate(24, 0)" visibility="inherit">20</text><text x="0" y="123.231" fill="#32313F" stroke="none" stroke-width="1" dx="0em" dy=".3em" font-family="&quot;Helvetica Neue&quot;, sans-serif" font-size="12" font-weight="200" text-anchor="end" transform="translate(24, 0)" visibility="hidden">22</text><text x="0" y="109.538" fill="#32313F" stroke="none" stroke-width="1" dx="0em" dy=".3em" font-family="&quot;Helvetica Neue&quot;, sans-serif" font-size="12" font-weight="200" text-anchor="end" transform="translate(24, 0)" visibility="inherit">24</text><text x="0" y="95.846" fill="#32313F" stroke="none" stroke-width="1" dx="0em" dy=".3em" font-family="&quot;Helvetica Neue&quot;, sans-serif" font-size="12" font-weight="200" text-anchor="end" transform="translate(24, 0)" visibility="hidden">26</text><text x="0" y="82.154" fill="#32313F" stroke="none" stroke-width="1" dx="0em" dy=".3em" font-family="&quot;Helvetica Neue&quot;, sans-serif" font-size="12" font-weight="200" text-anchor="end" transform="translate(24, 0)" visibility="inherit">28</text><text x="0" y="68.462" fill="#32313F" stroke="none" stroke-width="1" dx="0em" dy=".3em" font-family="&quot;Helvetica Neue&quot;, sans-serif" font-size="12" font-weight="200" text-anchor="end" transform="translate(24, 0)" visibility="hidden">30</text><text x="0" y="54.769" fill="#32313F" stroke="none" stroke-width="1" dx="0em" dy=".3em" font-family="&quot;Helvetica Neue&quot;, sans-serif" font-size="12" font-weight="200" text-anchor="end" transform="translate(24, 0)" visibility="inherit">32</text><text x="0" y="41.077" fill="#32313F" stroke="none" stroke-width="1" dx="0em" dy=".3em" font-family="&quot;Helvetica Neue&quot;, sans-serif" font-size="12" font-weight="200" text-anchor="end" transform="translate(24, 0)" visibility="hidden">34</text><text x="0" y="27.385" fill="#32313F" stroke="none" stroke-width="1" dx="0em" dy=".3em" font-family="&quot;Helvetica Neue&quot;, sans-serif" font-size="12" font-weight="200" text-anchor="end" transform="translate(24, 0)" visibility="inherit">36</text><text x="0" y="13.692" fill="#32313F" stroke="none" stroke-width="1" dx="0em" dy=".3em" font-family="&quot;Helvetica Neue&quot;, sans-serif" font-size="12" font-weight="200" text-anchor="end" transform="translate(24, 0)" visibility="hidden">38</text><text x="0" y="0" fill="#32313F" stroke="none" stroke-width="1" dx="0em" dy=".3em" font-family="&quot;Helvetica Neue&quot;, sans-serif" font-size="12" font-weight="200" text-anchor="end" transform="translate(24, 0)" visibility="hidden">40</text></g><line x1="34" x2="34" y1="0" y2="178" fill="#000" stroke="#CCC" stroke-width="1"/></g></g><g clip-path="url(#clip_0)" transform="translate(34, 0)"><clipPath id="clip_0"><rect width="296" height="178"/></clipPath><g><g><g><line x1="0" x2="0" y1="0" y2="178" fill="#000" stroke="#3C3C3C" stroke-width="1" opacity=".25"/><line x1="29.6" x2="29.6" y1="0" y2="178" fill="#000" stroke="#3C3C3C" stroke-width="1" opacity=".25"/><line x1="59.2" x2="59.2" y1="0" y2="178" fill="#000" stroke="#3C3C3C" stroke-width="1" opacity=".25"/><line x1="88.8" x2="88.8" y1="0" y2="178" fill="#000" stroke="#3C3C3C" stroke-width="1" opacity=".25"/><line x1="118.4" x2="118.4" y1="0" y2="178" fill="#000" stroke="#3C3C3C" stroke-width="1" opacity=".25"/><line x1="148" x2="148" y1="0" y2="178" fill="#000" stroke="#3C3C3C" stroke-width="1" opacity=".25"/><line x1="177.6" x2="177.6" y1="0" y2="178" fill="#000" stroke="#3C3C3C" stroke-width="1" opacity=".25"/><line x1="207.2" x2="207.2" y1="0" y2="178" fill="#000" stroke="#3C3C3C" stroke-width="1" opacity=".25"/><line x1="236.8" x2="236.8" y1="0" y2="178" fill="#000" stroke="#3C3C3C" stroke-width="1" opacity=".25"/><line x1="266.4" x2="266.4" y1="0" y2="178" fill="#000" stroke="#3C3C3C" stroke-width="1" opacity=".25"/><line x1="296" x2="296" y1="0" y2="178" fill="#000" stroke="#3C3C3C" stroke-width="1" opacity=".25"/></g><g><line x1="0" x2="296" y1="178" y2="178" fill="#000" stroke="#3C3C3C" stroke-width="1" opacity=".25"/><line x1="0" x2="296" y1="164.308" y2="164.308" fill="#000" stroke="#3C3C3C" stroke-width="1" opacity=".25"/><line x1="0" x2="296" y1="150.615" y2="150.615" fill="#000" stroke="#3C3C3C" stroke-width="1" opacity=".25"/><line x1="0" x2="296" y1="136.923" y2="136.923" fill="#000" stroke="#3C3C3C" stroke-width="1" opacity=".25"/><line x1="0" x2="296" y1="123.231" y2="123.231" fill="#000" stroke="#3C3C3C" stroke-width="1" opacity=".25"/><line x1="0" x2="296" y1="109.538" y2="109.538" fill="#000" stroke="#3C3C3C" stroke-width="1" opacity=".25"/><line x1="0" x2="296" y1="95.846" y2="95.846" fill="#000" stroke="#3C3C3C" stroke-width="1" opacity=".25"/><line x1="0" x2="296" y1="82.154" y2="82.154" fill="#000" stroke="#3C3C3C" stroke-width="1" opacity=".25"/><line x1="0" x2="296" y1="68.462" y2="68.462" fill="#000" stroke="#3C3C3C" stroke-width="1" opacity=".25"/><line x1="0" x2="296" y1="54.769" y2="54.769" fill="#000" stroke="#3C3C3C" stroke-width="1" opacity=".25"/><line x1="0" x2="296" y1="41.077" y2="41.077" fill="#000" stroke="#3C3C3C" stroke-width="1" opacity=".25"/><line x1="0" x2="296" y1="27.385" y2="27.385" fill="#000" stroke="#3C3C3C" stroke-width="1" opacity=".25"/><line x1="0" x2="296" y1="13.692" y2="13.692" fill="#000" stroke="#3C3C3C" stroke-width="1" opacity=".25"/><line x1="0" x2="296" y1="0" y2="0" fill="#000" stroke="#3C3C3C" stroke-width="1" opacity=".25"/></g></g></g><g><g><line x1="0" x2="296" y1="273.846" y2="273.846" fill="#000" stroke="#999" stroke-width="1.5"/></g></g><g><g><line x1="0" x2="0" y1="0" y2="178" fill="#000" stroke="#999" stroke-width="1.5"/></g></g><g><g><g><g><g><path fill="none" stroke="#E37" stroke-width="2" d="M14.797039999999999,142.60554078909067L29.59704,116.58261387164777L44.397040000000004,95.20939342792218L59.19704,89.56904161893405L73.99704,80.72782090994028L88.79704,77.841127542349L103.59704,75.3163236471323L118.39704,74.40986325190619L133.19704,75.68638742887057L147.99704,73.06372686532828L162.79703999999998,65.6796486194317L177.59704,61.43523641733023L192.39703999999998,30.985960153432984L207.19704,27.860892956073457L221.99704000000003,25.51899249737079L236.79703999999998,25.881378173828125L251.59704,22.398861224834747L266.39704,22.250966292161195"/></g><g><path fill="none" stroke="#3BE" stroke-width="2" d="M14.797039999999999,147.7941379547119L29.59704,117.32604510967548L44.397040000000004,104.05453153756949L59.19704,100.10123443603516L73.99704,91.34448594313402L88.79704,84.55365885221042L103.59704,78.55106500478891L118.39704,81.07693965618427L133.19704,76.87493984515851L147.99704,77.57633737417368L162.79703999999998,72.47776207557092L177.59704,72.32998466491699L192.39703999999998,34.75355940598709L207.19704,32.30063981276291L221.99704000000003,30.31812169001654L236.79703999999998,30.701086777907165L251.59704,27.205485710730926L266.39704,26.792434985821075"/></g><g><path fill="none" stroke="#07B" stroke-width="2" d="M14.797039999999999,186.21430602440466L29.59704,144.78746766310474L44.397040000000004,132.92301911574145L59.19704,127.6004599057711L73.99704,112.97289892343375L88.79704,105.00047933138333L103.59704,104.60078694270207L118.39704,96.13553223243126L133.19704,93.67056010319637L147.99704,89.6377136523907L162.79703999999998,93.08985768831693L177.59704,83.73755983205942L192.39703999999998,52.50857720008264L207.19704,48.62533628023587L221.99704000000003,47.49519230769232L236.79703999999998,45.1162854708158L251.59704,42.719175778902496L266.39704,42.16742295485275"/></g></g></g></g></g></g><g clip-path="url(#clip_1)" transform="translate(34, 178)"><clipPath id="clip_1"><rect width="296" height="22"/></clipPath><g><g><line x1="0" x2="0" y1="0" y2="5" fill="#000" stroke="#CCC" stroke-width="1" visibility="inherit"/><line x1="29.6" x2="29.6" y1="0" y2="5" fill="#000" stroke="#CCC" stroke-width="1" visibility="inherit"/><line x1="59.2" x2="59.2" y1="0" y2="5" fill="#000" stroke="#CCC" stroke-width="1" visibility="inherit"/><line x1="88.8" x2="88.8" y1="0" y2="5" fill="#000" stroke="#CCC" stroke-width="1" visibility="inherit"/><line x1="118.4" x2="118.4" y1="0" y2="5" fill="#000" stroke="#CCC" stroke-width="1" visibility="inherit"/><line x1="148" x2="148" y1="0" y2="5" fill="#000" stroke="#CCC" stroke-width="1" visibility="inherit"/><line x1="177.6" x2="177.6" y1="0" y2="5" fill="#000" stroke="#CCC" stroke-width="1" visibility="inherit"/><line x1="207.2" x2="207.2" y1="0" y2="5" fill="#000" stroke="#CCC" stroke-width="1" visibility="inherit"/><line x1="236.8" x2="236.8" y1="0" y2="5" fill="#000" stroke="#CCC" stroke-width="1" visibility="inherit"/><line x1="266.4" x2="266.4" y1="0" y2="5" fill="#000" stroke="#CCC" stroke-width="1" visibility="inherit"/><line x1="296" x2="296" y1="0" y2="5" fill="#000" stroke="#CCC" stroke-width="1" visibility="inherit"/></g><g><text x="0" y="0" fill="#32313F" stroke="none" stroke-width="1" dx="0em" dy=".95em" font-family="&quot;Helvetica Neue&quot;, sans-serif" font-size="12" font-weight="200" text-anchor="middle" transform="translate(0, 8)" visibility="hidden">0</text><text x="29.6" y="0" fill="#32313F" stroke="none" stroke-width="1" dx="0em" dy=".95em" font-family="&quot;Helvetica Neue&quot;, sans-serif" font-size="12" font-weight="200" text-anchor="middle" transform="translate(0, 8)" visibility="inherit">10k</text><text x="59.2" y="0" fill="#32313F" stroke="none" stroke-width="1" dx="0em" dy=".95em" font-family="&quot;Helvetica Neue&quot;, sans-serif" font-size="12" font-weight="200" text-anchor="middle" transform="translate(0, 8)" visibility="inherit">20k</text><text x="88.8" y="0" fill="#32313F" stroke="none" stroke-width="1" dx="0em" dy=".95em" font-family="&quot;Helvetica Neue&quot;, sans-serif" font-size="12" font-weight="200" text-anchor="middle" transform="translate(0, 8)" visibility="inherit">30k</text><text x="118.4" y="0" fill="#32313F" stroke="none" stroke-width="1" dx="0em" dy=".95em" font-family="&quot;Helvetica Neue&quot;, sans-serif" font-size="12" font-weight="200" text-anchor="middle" transform="translate(0, 8)" visibility="inherit">40k</text><text x="148" y="0" fill="#32313F" stroke="none" stroke-width="1" dx="0em" dy=".95em" font-family="&quot;Helvetica Neue&quot;, sans-serif" font-size="12" font-weight="200" text-anchor="middle" transform="translate(0, 8)" visibility="inherit">50k</text><text x="177.6" y="0" fill="#32313F" stroke="none" stroke-width="1" dx="0em" dy=".95em" font-family="&quot;Helvetica Neue&quot;, sans-serif" font-size="12" font-weight="200" text-anchor="middle" transform="translate(0, 8)" visibility="inherit">60k</text><text x="207.2" y="0" fill="#32313F" stroke="none" stroke-width="1" dx="0em" dy=".95em" font-family="&quot;Helvetica Neue&quot;, sans-serif" font-size="12" font-weight="200" text-anchor="middle" transform="translate(0, 8)" visibility="inherit">70k</text><text x="236.8" y="0" fill="#32313F" stroke="none" stroke-width="1" dx="0em" dy=".95em" font-family="&quot;Helvetica Neue&quot;, sans-serif" font-size="12" font-weight="200" text-anchor="middle" transform="translate(0, 8)" visibility="inherit">80k</text><text x="266.4" y="0" fill="#32313F" stroke="none" stroke-width="1" dx="0em" dy=".95em" font-family="&quot;Helvetica Neue&quot;, sans-serif" font-size="12" font-weight="200" text-anchor="middle" transform="translate(0, 8)" visibility="inherit">90k</text><text x="296" y="0" fill="#32313F" stroke="none" stroke-width="1" dx="0em" dy=".95em" font-family="&quot;Helvetica Neue&quot;, sans-serif" font-size="12" font-weight="200" text-anchor="middle" transform="translate(0, 8)" visibility="hidden">100k</text></g><line x1="0" x2="296" y1="0" y2="0" fill="#000" stroke="#CCC" stroke-width="1"/></g></g></g></g></svg>